<svg width="148" height="40" viewBox="0 0 148 40" fill="none" xmlns="http://www.w3.org/2000/svg">
<g clip-path="url(#clip0_120_97224)">
<rect width="40" height="40" fill="#03753C"/>
<path d="M26.2514 12.5003H14.0639C12.0748 12.4713 10.1514 13.2121 8.69557 14.5677C7.23973 15.9234 6.36402 17.7892 6.25138 19.7753C6.20847 21.2139 6.58037 22.6345 7.32272 23.8675C8.06507 25.1005 9.1465 26.0938 10.438 26.729C11.7294 27.3642 13.1764 27.6144 14.6062 27.4497C16.0359 27.2851 17.3881 26.7125 18.5014 25.8003C18.934 25.4534 19.4719 25.2644 20.0264 25.2644C20.5809 25.2644 21.1188 25.4534 21.5514 25.8003C22.3351 26.4497 23.2459 26.928 24.2254 27.2045C25.2049 27.4811 26.2313 27.5497 27.2389 27.4061C28.2465 27.2625 29.2129 26.9098 30.0761 26.3707C30.9394 25.8315 31.6803 25.1178 32.2514 24.2753C33.0245 23.1616 33.4812 21.8591 33.573 20.5064C33.6648 19.1538 33.3883 17.8015 32.7727 16.5935C32.1572 15.3855 31.2257 14.367 30.0774 13.6462C28.9291 12.9255 27.6068 12.5295 26.2514 12.5003ZM16.7514 20.5003C16.6726 20.6798 16.5527 20.8382 16.4014 20.9628L13.3014 23.4628C13.0765 23.6492 12.7934 23.7509 12.5014 23.7503C12.3147 23.7534 12.1301 23.7105 11.9639 23.6253C11.7484 23.5243 11.5663 23.3638 11.4389 23.1628C11.3094 22.9667 11.2439 22.7352 11.2514 22.5003V17.5003C11.252 17.2608 11.3214 17.0265 11.4514 16.8253C11.5788 16.6243 11.7609 16.4639 11.9764 16.3628C12.1776 16.2634 12.4034 16.2243 12.6264 16.2503C12.8474 16.2763 13.0582 16.358 13.2389 16.4878L16.4014 18.9878C16.5497 19.1053 16.6693 19.2549 16.7514 19.4253C16.8314 19.5932 16.8728 19.7769 16.8728 19.9628C16.8728 20.1488 16.8314 20.3324 16.7514 20.5003ZM26.8764 16.2503C27.1257 16.2498 27.3695 16.3238 27.5764 16.4628C27.7816 16.5986 27.939 16.7953 28.0264 17.0253C28.1229 17.2542 28.149 17.5066 28.1014 17.7503C28.0524 17.9906 27.9338 18.2111 27.7605 18.3844C27.5871 18.5578 27.3666 18.6763 27.1264 18.7253C26.8826 18.7729 26.6302 18.7468 26.4014 18.6503C26.1714 18.5629 25.9746 18.4055 25.8389 18.2003C25.7117 18.0122 25.6382 17.793 25.6262 17.5662C25.6143 17.3394 25.6643 17.1137 25.771 16.9132C25.8776 16.7127 26.0369 16.5451 26.2317 16.4283C26.4264 16.3115 26.6493 16.25 26.8764 16.2503ZM24.3764 21.2503C24.1271 21.2509 23.8833 21.1769 23.6764 21.0378C23.4712 20.9021 23.3138 20.7053 23.2264 20.4753C23.1299 20.2465 23.1038 19.9941 23.1514 19.7503C23.1959 19.5055 23.3125 19.2796 23.4862 19.1015C23.6599 18.9233 23.8828 18.8011 24.1264 18.7503C24.3701 18.7028 24.6225 18.7289 24.8514 18.8253C25.0814 18.9127 25.2781 19.0701 25.4139 19.2753C25.548 19.4636 25.6273 19.6854 25.6429 19.9161C25.6585 20.1467 25.6098 20.3772 25.5023 20.5818C25.3948 20.7864 25.2327 20.9573 25.0339 21.0753C24.8351 21.1933 24.6075 21.2539 24.3764 21.2503ZM26.8764 23.7503C26.6271 23.7509 26.3833 23.6769 26.1764 23.5378C25.9712 23.4021 25.8138 23.2053 25.7264 22.9753C25.6299 22.7465 25.6038 22.4941 25.6514 22.2503C25.6959 22.0055 25.8125 21.7796 25.9862 21.6015C26.1599 21.4233 26.3828 21.3011 26.6264 21.2503C26.8701 21.2028 27.1225 21.2289 27.3514 21.3253C27.5814 21.4127 27.7781 21.5701 27.9139 21.7753C28.048 21.9636 28.1273 22.1854 28.1429 22.4161C28.1585 22.6467 28.1098 22.8772 28.0023 23.0818C27.8948 23.2864 27.7327 23.4573 27.5339 23.5753C27.3351 23.6933 27.1075 23.7539 26.8764 23.7503ZM29.3764 21.2503C29.1271 21.2509 28.8833 21.1769 28.6764 21.0378C28.4712 20.9021 28.3138 20.7053 28.2264 20.4753C28.1299 20.2465 28.1038 19.9941 28.1514 19.7503C28.1959 19.5055 28.3125 19.2796 28.4862 19.1015C28.6599 18.9233 28.8828 18.8011 29.1264 18.7503C29.3701 18.7028 29.6225 18.7289 29.8514 18.8253C30.0814 18.9127 30.2781 19.0701 30.4139 19.2753C30.548 19.4636 30.6273 19.6854 30.6429 19.9161C30.6585 20.1467 30.6098 20.3772 30.5023 20.5818C30.3948 20.7864 30.2327 20.9573 30.0339 21.0753C29.8351 21.1933 29.6075 21.2539 29.3764 21.2503Z" fill="white"/>
</g>
<g clip-path="url(#clip1_120_97224)">
<path d="M71.9775 15.8897C71.0625 15.3647 69.99 15.1022 68.76 15.1022C67.53 15.1022 66.48 15.3572 65.565 15.8672C64.65 16.3772 63.9525 17.101 63.4725 18.0385C62.9925 18.976 62.7525 20.0522 62.7525 21.2672C62.7525 22.4822 62.9925 23.5772 63.4725 24.5072C63.9525 25.4372 64.65 26.161 65.565 26.6785C66.48 27.196 67.5525 27.4547 68.7825 27.4547C70.0125 27.4547 71.0775 27.196 71.9775 26.6785C72.8775 26.161 73.5713 25.441 74.0588 24.5185C74.5463 23.596 74.79 22.5122 74.79 21.2672C74.79 20.0222 74.55 18.9835 74.07 18.061C73.59 17.1385 72.8925 16.4147 71.9775 15.8897ZM70.9763 23.191C70.7888 23.7085 70.5075 24.1097 70.1325 24.3947C69.7575 24.6797 69.3075 24.8222 68.7825 24.8222C68.2575 24.8222 67.8075 24.6797 67.4325 24.3947C67.0575 24.1097 66.7725 23.7047 66.5775 23.1797C66.3825 22.6547 66.285 22.0247 66.285 21.2897C66.285 20.5547 66.3825 19.876 66.5775 19.3435C66.7725 18.811 67.0575 18.406 67.4325 18.1285C67.8075 17.851 68.25 17.7122 68.76 17.7122C69.33 17.7122 69.7988 17.8622 70.1663 18.1622C70.5338 18.4622 70.8075 18.8785 70.9875 19.411C71.1675 19.9435 71.2575 20.5697 71.2575 21.2897C71.2575 22.0097 71.1638 22.6735 70.9763 23.191ZM51.9075 22.0097C51.9075 22.5647 51.8588 23.0147 51.7613 23.3597C51.6638 23.7047 51.495 23.9672 51.255 24.1472C51.015 24.3272 50.6775 24.4172 50.2425 24.4172C49.6275 24.4172 49.1813 24.2372 48.9038 23.8772C48.6263 23.5172 48.4875 22.9397 48.4875 22.1447H45V22.4822C45 23.5322 45.1988 24.4322 45.5963 25.1822C45.9938 25.9322 46.5863 26.506 47.3738 26.9035C48.1613 27.301 49.1325 27.4997 50.2875 27.4997C51.5475 27.4997 52.5825 27.2935 53.3925 26.881C54.2025 26.4685 54.8025 25.8535 55.1925 25.036C55.5825 24.2185 55.7775 23.2097 55.7775 22.0097V11.5922H51.9075V22.0097ZM60.5813 10.4672C60.2738 10.3022 59.925 10.2197 59.535 10.2197C59.115 10.2197 58.7513 10.3022 58.4438 10.4672C58.1363 10.6322 57.8963 10.8497 57.7238 11.1197C57.5513 11.3897 57.465 11.7122 57.465 12.0872C57.465 12.4622 57.5513 12.7885 57.7238 13.066C57.8963 13.3435 58.1325 13.5685 58.4325 13.741C58.7325 13.9135 59.0925 13.9997 59.5125 13.9997C59.9325 13.9997 60.2775 13.9172 60.5925 13.7522C60.9075 13.5872 61.1438 13.3622 61.3013 13.0772C61.4588 12.7922 61.5375 12.4697 61.5375 12.1097C61.5375 11.7497 61.455 11.4085 61.29 11.131C61.125 10.8535 60.8888 10.6322 60.5813 10.4672ZM57.7575 27.1397H61.2675V15.3947H57.7575V27.1397ZM147.261 21.8185C146.961 21.346 146.53 20.9635 145.968 20.671C145.405 20.3785 144.711 20.1422 143.886 19.9622L142.401 19.6697C141.741 19.5347 141.265 19.366 140.973 19.1635C140.68 18.961 140.534 18.6947 140.534 18.3647C140.534 18.1397 140.605 17.9447 140.748 17.7797C140.89 17.6147 141.089 17.491 141.344 17.4085C141.599 17.326 141.899 17.2847 142.244 17.2847C142.814 17.2847 143.26 17.386 143.583 17.5885C143.905 17.791 144.089 18.0872 144.134 18.4772H147.351C147.291 17.3822 146.823 16.546 145.945 15.9685C145.068 15.391 143.841 15.1022 142.266 15.1022C141.276 15.1022 140.395 15.2297 139.623 15.4847C138.85 15.7397 138.239 16.1372 137.789 16.6772C137.339 17.2172 137.114 17.8847 137.114 18.6797C137.114 19.6097 137.41 20.341 138.003 20.8735C138.595 21.406 139.506 21.8147 140.736 22.0997L142.176 22.4147L142.424 22.4597C142.844 22.5797 143.189 22.696 143.459 22.8085C143.729 22.921 143.939 23.0635 144.089 23.236C144.239 23.4085 144.314 23.6222 144.314 23.8772C144.314 24.1622 144.228 24.3985 144.055 24.586C143.883 24.7735 143.65 24.916 143.358 25.0135C143.065 25.111 142.739 25.1597 142.379 25.1597C141.734 25.1597 141.224 25.0397 140.849 24.7997C140.474 24.5597 140.264 24.1997 140.219 23.7197H136.866C136.911 24.9797 137.425 25.9172 138.408 26.5322C139.39 27.1472 140.699 27.4547 142.334 27.4547C143.399 27.4547 144.325 27.316 145.113 27.0385C145.9 26.761 146.53 26.3335 147.003 25.756C147.475 25.1785 147.711 24.4322 147.711 23.5172C147.711 22.8572 147.561 22.291 147.261 21.8185ZM84.015 21.4022H87.3175C87.2913 21.8797 87.1963 22.2997 87.03 22.6622C86.775 23.2172 86.3813 23.641 85.8488 23.9335C85.3163 24.226 84.675 24.3722 83.925 24.3722C83.01 24.3722 82.2563 24.1547 81.6638 23.7197C81.0713 23.2847 80.64 22.6922 80.37 21.9422C80.1 21.1922 79.965 20.3372 79.965 19.3772C79.965 18.4172 80.1 17.5622 80.37 16.8122C80.64 16.0622 81.0638 15.4697 81.6413 15.0347C82.2188 14.5997 82.9575 14.3822 83.8575 14.3822C84.3975 14.3822 84.885 14.4647 85.32 14.6297C85.755 14.7947 86.1113 15.0422 86.3888 15.3722C86.6663 15.7022 86.8575 16.0697 86.9625 16.4747H90.675C90.51 15.3647 90.1088 14.416 89.4713 13.6285C88.8338 12.841 88.0313 12.2447 87.0638 11.8397C86.0963 11.4347 84.9975 11.2322 83.7675 11.2322C82.2075 11.2322 80.8463 11.5772 79.6838 12.2672C78.5213 12.9572 77.6213 13.9247 76.9838 15.1697C76.3463 16.4147 76.0275 17.8397 76.0275 19.4447C76.0275 21.0497 76.3388 22.3697 76.9613 23.5847C77.5838 24.7997 78.4763 25.756 79.6388 26.4535C80.8013 27.151 82.17 27.4997 83.745 27.4997C85.155 27.4997 86.3963 27.2335 87.4688 26.701C88.5413 26.1685 89.3813 25.3585 89.9888 24.271C90.5963 23.1835 90.9 21.8297 90.9 20.2097V18.7697H84.015V21.4022ZM100.721 15.586C99.9488 15.2485 98.9625 15.0797 97.7625 15.0797C96.5625 15.0797 95.6513 15.211 94.8938 15.4735C94.1363 15.736 93.5513 16.126 93.1388 16.6435C92.7263 17.161 92.46 17.7872 92.34 18.5222H95.6925C95.7825 18.1322 95.9813 17.8322 96.2888 17.6222C96.5963 17.4122 97.0425 17.3072 97.6275 17.3072C98.1075 17.3072 98.49 17.386 98.775 17.5435C99.06 17.701 99.2625 17.9372 99.3825 18.2522C99.5025 18.5672 99.5625 18.9647 99.5625 19.4447V19.9847H97.6725C96.4275 19.9847 95.3738 20.1235 94.5113 20.401C93.6488 20.6785 92.9925 21.091 92.5425 21.6385C92.0925 22.186 91.8675 22.8947 91.8675 23.7647C91.8675 24.5297 92.0325 25.1897 92.3625 25.7447C92.6925 26.2997 93.1613 26.7235 93.7688 27.016C94.3763 27.3085 95.0925 27.4547 95.9175 27.4547C96.5325 27.4547 97.0838 27.376 97.5713 27.2185C98.0588 27.061 98.4563 26.8547 98.7638 26.5997C99.0713 26.3447 99.3375 26.0447 99.5625 25.6997H99.675L99.8325 27.1397H102.96V19.7372C102.96 18.6872 102.78 17.8172 102.42 17.1272C102.06 16.4372 101.494 15.9235 100.721 15.586ZM99.5625 22.6622C99.5625 23.1722 99.4575 23.6147 99.2475 23.9897C99.0375 24.3647 98.7638 24.646 98.4263 24.8335C98.0888 25.021 97.6875 25.1147 97.2225 25.1147C96.8625 25.1147 96.555 25.0547 96.3 24.9347C96.045 24.8147 95.8388 24.6385 95.6813 24.406C95.5238 24.1735 95.445 23.8772 95.445 23.5172C95.445 23.0972 95.5575 22.7635 95.7825 22.516C96.0075 22.2685 96.33 22.0885 96.75 21.976C97.17 21.8635 97.6725 21.8072 98.2575 21.8072H99.5625V22.6622ZM120.881 15.5972C120.289 15.2672 119.573 15.1022 118.733 15.1022C117.893 15.1022 117.214 15.2597 116.606 15.5747C115.999 15.8897 115.478 16.3772 115.043 17.0372H114.953C114.698 16.4072 114.289 15.9272 113.726 15.5972C113.164 15.2672 112.485 15.1022 111.69 15.1022C110.895 15.1022 110.231 15.2635 109.654 15.586C109.076 15.9085 108.593 16.3847 108.203 17.0147H108.09L108.023 15.3947H104.738V27.1397H108.248V20.3897C108.248 19.5197 108.409 18.8747 108.731 18.4547C109.054 18.0347 109.53 17.8247 110.16 17.8247C110.79 17.8247 111.248 18.0385 111.533 18.466C111.818 18.8935 111.96 19.5347 111.96 20.3897V27.1397H115.493V20.3897C115.493 19.8197 115.564 19.3397 115.706 18.9497C115.849 18.5597 116.063 18.2747 116.348 18.0947C116.633 17.9147 116.978 17.8247 117.383 17.8247C117.998 17.8247 118.448 18.0347 118.733 18.4547C119.018 18.8747 119.16 19.5197 119.16 20.3897V27.1397H122.693V19.2872C122.693 18.4022 122.539 17.6485 122.231 17.026C121.924 16.4035 121.474 15.9272 120.881 15.5972ZM133.324 15.901C132.446 15.3685 131.37 15.1022 130.095 15.1022C128.91 15.1022 127.868 15.3685 126.968 15.901C126.068 16.4335 125.37 17.1722 124.875 18.1172C124.38 19.0622 124.133 20.1197 124.133 21.2897C124.133 22.5647 124.384 23.6635 124.886 24.586C125.389 25.5085 126.09 26.2172 126.99 26.7122C127.89 27.2072 128.948 27.4547 130.163 27.4547C131.618 27.4547 132.825 27.1435 133.785 26.521C134.745 25.8985 135.405 25.0097 135.765 23.8547H132.57C132.42 24.2147 132.154 24.4997 131.771 24.7097C131.389 24.9197 130.913 25.0247 130.343 25.0247C129.743 25.0247 129.24 24.9047 128.835 24.6647C128.43 24.4247 128.123 24.091 127.913 23.6635C127.708 23.246 127.589 22.7322 127.555 22.1222H135.99V21.6947C135.99 20.3597 135.765 19.1935 135.315 18.196C134.865 17.1985 134.201 16.4335 133.324 15.901ZM127.553 20.0522V20.0297C127.613 19.5047 127.755 19.0547 127.98 18.6797C128.205 18.3047 128.501 18.0197 128.869 17.8247C129.236 17.6297 129.66 17.5322 130.14 17.5322C130.62 17.5322 131.04 17.6335 131.4 17.836C131.76 18.0385 132.041 18.331 132.244 18.7135C132.446 19.096 132.563 19.5422 132.593 20.0522H127.553Z" fill="#002D16"/>
</g>
<defs>
<clipPath id="clip0_120_97224">
<rect width="40" height="40" rx="20" fill="white"/>
</clipPath>
<clipPath id="clip1_120_97224">
<rect width="102.713" height="30" fill="white" transform="translate(45 5)"/>
</clipPath>
</defs>
</svg>
